<svg xmlns="http://www.w3.org/2000/svg" xmlns:xlink="http://www.w3.org/1999/xlink" version="1.1" x="0px" y="0px" viewBox="0 0 64 80" style="enable-background:new 0 0 64 64;" xml:space="preserve"><g><rect x="38" y="5" width="6" height="2"/><rect x="19" y="9" width="6" height="2"/><path d="M46,31h-3v-1c0-2.045-1.237-3.802-3-4.576V22c0-1.654-1.346-3-3-3h-1v-8h9c1.654,0,3-1.346,3-3V6.505   C48,3.47,45.53,1,42.495,1c-0.401,0-0.803,0.044-1.194,0.131l-4.99,1.108C33.772,2.804,32,5.014,32,7.614V8   c0,1.302,0.839,2.402,2,2.816v8.314c-0.482,0.138-0.929,0.384-1.293,0.749L31.586,21H29v-6.184c1.161-0.414,2-1.514,2-2.816v-0.386   c0-2.6-1.772-4.81-4.311-5.375L21.7,5.131C21.308,5.044,20.906,5,20.505,5C17.47,5,15,7.47,15,10.505V12c0,1.654,1.346,3,3,3h9v6   c-1.654,0-3,1.346-3,3v1.424c-1.763,0.774-3,2.531-3,4.576v1h-3c-2.757,0-5,2.243-5,5v12c0,2.757,2.243,5,5,5h3v1   c0,2.414,1.721,4.434,4,4.899V60c0,1.654,1.346,3,3,3h8c1.654,0,3-1.346,3-3v-1.101c2.279-0.465,4-2.484,4-4.899v-1h3   c2.757,0,5-2.243,5-5V36C51,33.243,48.757,31,46,31z M17,12v-1.495C17,8.572,18.572,7,20.505,7c0.255,0,0.511,0.028,0.761,0.083   l4.989,1.108C27.871,8.551,29,9.959,29,11.614V12c0,0.551-0.449,1-1,1H18C17.449,13,17,12.551,17,12z M34,7.614   c0-1.655,1.129-3.063,2.745-3.422l4.989-1.108C41.984,3.028,42.24,3,42.495,3C44.428,3,46,4.572,46,6.505V8c0,0.551-0.449,1-1,1H35   c-0.551,0-1-0.449-1-1V7.614z M26,24c0-0.551,0.449-1,1-1h5.414l1.707-1.707C34.31,21.104,34.562,21,34.829,21H37   c0.551,0,1,0.449,1,1v3H26V24z M33,57c0-5.728-4.402-10.442-10-10.949v-9.101c5.268-0.478,9.472-4.681,9.949-9.949H35v30H33z    M21,47h-2V37h2V47z M26,27h4.941c-0.463,4.164-3.777,7.478-7.941,7.941V30C23,28.346,24.346,27,26,27z M18,51   c-1.654,0-3-1.346-3-3V36c0-1.654,1.346-3,3-3h3v2h-2c-1.103,0-2,0.897-2,2v10c0,1.103,0.897,2,2,2h2v2H18z M23,54v-5.941   c4.493,0.5,8,4.317,8,8.941h-5C24.346,57,23,55.654,23,54z M36,61h-8c-0.551,0-1-0.449-1-1v-1h10v1C37,60.551,36.551,61,36,61z    M41,54c0,1.654-1.346,3-3,3h-1V27h1c1.654,0,3,1.346,3,3V54z M43,37h2v10h-2V37z M49,48c0,1.654-1.346,3-3,3h-3v-2h2   c1.103,0,2-0.897,2-2V37c0-1.103-0.897-2-2-2h-2v-2h3c1.654,0,3,1.346,3,3V48z"/></g><text x="0" y="79" fill="#000000" font-size="5px" font-weight="bold" font-family="'Helvetica Neue', Helvetica, Arial-Unicode, Arial, Sans-serif">Created by Eucalyp</text><text x="0" y="84" fill="#000000" font-size="5px" font-weight="bold" font-family="'Helvetica Neue', Helvetica, Arial-Unicode, Arial, Sans-serif">from the Noun Project</text></svg>