<svg width="185" height="232" viewBox="0 0 185 232" fill="none" xmlns="http://www.w3.org/2000/svg">
<path fill-rule="evenodd" clip-rule="evenodd" d="M42.0221 25.1579C45.5221 23.1579 54.0221 19.1579 57.0221 20.1579C57.4703 20.3072 58.1416 20.4566 58.9628 20.6394C63.6385 21.6798 73.1715 23.8011 74.0221 33.1578C74.8221 41.9578 72.3555 49.1578 71.0221 51.6578C69.5221 57.3245 67.4221 70.1578 71.0221 76.1578C72.2221 79.5578 72.7821 82.0778 73.1821 83.8778C73.7821 86.5778 74.0221 87.6578 75.5221 87.6578C76.1388 87.6578 77.0293 87.3536 78.2611 86.9328C82.0231 85.6475 88.9688 83.2745 101.022 85.1578C117.022 87.6578 120.522 90.1578 128.522 98.1578C135.151 104.787 137.317 113.819 138.149 117.289C138.321 118.007 138.436 118.486 138.522 118.658C140.022 120.158 145.022 124.658 149.522 124.158C152.23 123.857 156.386 121.927 159.593 120.437C161.717 119.451 163.425 118.658 164.022 118.658C164.822 120.258 162.689 127.991 161.522 131.658C159.355 136.491 150.522 146.258 132.522 146.658C124.522 148.658 124.855 159.825 126.022 165.158C120.522 164.158 115.022 158.658 110.522 146.658C109.533 149.379 107.809 152.467 106.32 155.135C104.799 157.86 103.522 160.147 103.522 161.158C103.522 163.158 98.0221 150.158 98.0221 146.658C86.0221 145.158 77.0221 141.658 75.5221 140.658C72.5221 146.658 71.0221 159.658 71.0221 165.158C67.5221 165.158 54.0221 153.158 55.5221 127.658C51.0221 131.658 39.5221 146.658 39.5221 148.158C37.5221 146.658 37.5221 123.658 43.5221 113.658C45.0221 111.158 45.0221 107.658 43.5221 103.658C41.5939 99.4158 42.6401 75.5426 43.2195 62.3207C43.3913 58.3999 43.5221 55.4158 43.5221 54.1578C43.2788 54.1274 42.9837 54.0952 42.6439 54.058C37.3972 53.4844 21.4917 51.7455 21.0221 37.6578C20.5221 27.1578 28.5221 23.6579 42.0221 25.1579Z" fill="#EB5757"/>
<path d="M54.3365 29.8419C49.9879 29.8419 46.4487 33.3917 46.4487 37.7553C46.4487 38.7802 47.2762 39.6113 48.2987 39.6113C49.3213 39.6113 50.1487 38.7802 50.1487 37.7553C50.1487 35.4389 52.0276 33.5539 54.3365 33.5539C56.6472 33.5539 58.5261 35.4389 58.5261 37.7553C58.5261 38.7802 59.3536 39.6113 60.3761 39.6113C61.3987 39.6113 62.2261 38.7802 62.2261 37.7553C62.2261 33.3917 58.6869 29.8419 54.3365 29.8419Z" fill="white"/>
<path d="M85.745 97.768C83.5643 96.8908 81.194 96.831 79.0676 97.6058C76.8725 98.4069 75.2068 99.9929 74.3758 102.073C72.6884 106.29 75.046 111.222 79.6277 113.066C80.8056 113.539 82.0197 113.764 83.1994 113.764C86.6067 113.764 89.7412 111.894 90.9951 108.762V108.761C92.6806 104.544 90.3248 99.6122 85.745 97.768ZM87.5624 107.38C86.632 109.699 83.689 110.701 81.0043 109.62C78.3161 108.539 76.8834 105.772 77.8084 103.455C78.2438 102.367 79.1399 101.529 80.3323 101.094C80.9122 100.882 81.5301 100.776 82.1552 100.776C82.8923 100.776 83.6438 100.922 84.3665 101.214C87.0548 102.296 88.4874 105.062 87.5624 107.38Z" fill="white"/>
<path d="M126.214 116.817C122.138 114.029 116.742 114.816 114.191 118.572C111.641 122.328 112.886 127.652 116.967 130.44C118.572 131.537 120.422 132.115 122.277 132.115C122.671 132.115 123.063 132.09 123.453 132.037C125.767 131.727 127.735 130.537 128.991 128.686C128.991 128.686 128.991 128.686 128.991 128.685C131.54 124.928 130.295 119.605 126.214 116.817ZM125.934 126.596C125.276 127.564 124.223 128.189 122.965 128.358C121.63 128.535 120.241 128.186 119.049 127.372C116.655 125.736 115.847 122.725 117.247 120.662C118.055 119.474 119.421 118.854 120.891 118.854C121.975 118.854 123.115 119.191 124.132 119.885C126.526 121.521 127.334 124.531 125.934 126.596Z" fill="white"/>
<path d="M115.347 107.313C117.208 102.658 114.599 97.2125 109.531 95.1735C107.116 94.2011 104.487 94.1358 102.138 94.9922C99.7175 95.8758 97.882 97.624 96.966 99.915C95.1052 104.569 97.714 110.016 102.782 112.055C104.072 112.574 105.421 112.835 106.756 112.835C107.923 112.835 109.08 112.635 110.174 112.235C112.595 111.352 114.433 109.604 115.347 107.313ZM111.914 105.932C111.394 107.229 110.328 108.23 108.91 108.747C107.419 109.294 105.732 109.242 104.158 108.61C100.984 107.333 99.2984 104.052 100.399 101.296C100.919 99.9983 101.985 98.9978 103.403 98.4804C104.09 98.2303 104.816 98.1052 105.555 98.1052C106.422 98.1052 107.305 98.2774 108.155 98.619C111.329 99.8959 113.014 103.177 111.914 105.932Z" fill="white"/>
<path d="M166.484 118.479C166.495 118.394 166.467 118.317 166.467 118.233C166.467 118.1 166.469 117.97 166.44 117.838C166.412 117.712 166.358 117.601 166.306 117.486C166.27 117.405 166.261 117.319 166.213 117.242C166.197 117.218 166.171 117.205 166.154 117.182C166.081 117.076 165.986 116.996 165.893 116.908C165.809 116.828 165.733 116.742 165.637 116.68C165.548 116.623 165.446 116.595 165.347 116.553C165.221 116.501 165.1 116.446 164.967 116.423C164.94 116.418 164.919 116.401 164.892 116.397C164.801 116.384 164.72 116.413 164.631 116.413C164.507 116.414 164.388 116.41 164.266 116.436C164.103 116.47 163.96 116.535 163.817 116.609C163.766 116.636 163.709 116.638 163.66 116.67C148.197 126.503 141.081 118.838 139.971 117.45C135.348 102.607 127.327 92.3242 116.124 86.8822C98.9353 78.5311 80.0324 84.2867 75.9006 85.7258C73.3044 83.7366 70.2151 73.0283 70.5891 64.4461C70.8745 57.942 72.1175 52.4746 73.897 46.2668C77.2863 34.4502 74.7949 25.6133 66.8818 21.3857C59.135 17.2468 50.7612 17.5305 42.6783 22.2158C41.569 22.8583 40.3296 23.1393 39.0939 23.0187C35.0199 22.6345 27.4772 22.6399 22.7059 26.9954C19.9146 29.5437 18.5 33.1443 18.5 37.6973C18.5 42.3001 20.0537 46.1227 23.1178 49.0589C28.5648 54.2789 37.318 55.1897 41.3215 55.3211C39.5781 75.429 39.2186 92.8761 39.2149 93.0909C39.2149 99.2806 40.3347 105.293 42.4548 110.913C40.4066 114.932 31.9123 133.139 36.8681 149.777C37.0849 150.506 37.7245 151.028 38.4796 151.095C38.5338 151.099 38.588 151.102 38.6404 151.102C39.336 151.102 39.9792 150.708 40.2953 150.077C40.3609 149.945 46.1952 138.369 53.4709 131.351C52.4668 142.72 54.8453 157.451 70.4156 166.777C70.7083 166.953 71.0353 167.04 71.3641 167.04C71.702 167.04 72.0398 166.948 72.3379 166.762C72.925 166.397 73.2611 165.734 73.2087 165.043C73.195 164.865 72.3341 152.684 75.3851 142.35C80.6965 145.58 88.6794 147.428 96.0691 148.101C96.24 151.451 97.2044 158.762 102.229 163.19C102.572 163.492 103.007 163.652 103.45 163.652C103.649 163.652 103.848 163.62 104.041 163.555C104.666 163.343 105.132 162.814 105.264 162.165C105.674 160.132 107.277 154.709 109.825 152.103C112.269 157.248 116.687 162.855 124.676 166.845C124.936 166.976 125.22 167.04 125.5 167.04C125.925 167.04 126.347 166.893 126.687 166.608C127.251 166.136 127.482 165.373 127.276 164.665C127.247 164.565 124.535 154.844 131.771 147.692C152.553 147.658 163.911 138.095 166.484 118.479ZM39.401 144.008C37.8349 132.694 41.9732 121.104 44.4333 115.455C46.5392 119.7 49.2535 123.658 52.5412 127.218C46.9588 131.974 42.1414 139.316 39.401 144.008ZM102.581 157.915C100.542 154.679 99.9596 150.658 99.7963 148.345C100.668 148.379 101.529 148.402 102.359 148.402C104.519 148.402 106.516 148.287 108.244 148.065C108.286 148.2 108.327 148.333 108.372 148.469C105.403 150.68 103.572 154.87 102.581 157.915ZM129.793 144.461C123.531 150.178 122.805 157.3 123.09 161.677C117.155 157.82 114.035 152.91 112.379 148.648C112.362 148.598 112.368 148.546 112.346 148.497C112.334 148.469 112.309 148.452 112.295 148.425C111.939 147.485 111.639 146.573 111.413 145.719C111.408 145.686 111.42 145.656 111.414 145.623C111.404 145.57 111.37 145.531 111.356 145.48C110.456 141.96 110.522 139.373 110.534 139.102C110.581 138.079 109.793 137.212 108.772 137.163C107.842 137.149 106.886 137.904 106.838 138.929C106.826 139.181 106.752 141.338 107.335 144.437C104.693 144.746 101.429 144.783 97.9618 144.547C97.9591 144.547 97.957 144.545 97.9542 144.545C97.9522 144.545 97.9504 144.546 97.9484 144.546C90.28 144.022 81.6727 142.134 76.6603 138.752C78.0363 135.462 79.9217 132.571 82.5165 130.63C83.3367 130.017 83.5047 128.853 82.8941 128.032C82.2834 127.209 81.1254 127.04 80.3052 127.653C70.1934 135.219 69.2792 153.707 69.3786 161.644C60.7808 155.326 56.5876 146.232 56.9074 134.563C57.1766 124.703 60.714 116.605 60.7483 116.525C61.1638 115.589 60.7447 114.492 59.8106 114.075C58.8784 113.656 57.7854 114.079 57.3699 115.014C57.3208 115.124 55.7906 118.666 54.6128 123.983C51.0405 119.954 48.2344 115.406 46.2676 110.515C46.2635 110.501 46.256 110.488 46.2516 110.474C44.0672 105.027 42.9149 99.1632 42.9149 93.1272C42.9186 92.9432 43.2979 74.453 45.1859 53.6382C45.2347 53.1035 45.0504 52.5743 44.68 52.1873C44.3097 51.7994 43.7948 51.5982 43.2582 51.6155C43.1444 51.6245 31.6289 52.0795 25.6724 46.3746C23.3364 44.1353 22.2 41.2969 22.2 37.6973C22.2 34.1846 23.181 31.5819 25.1972 29.7404C28.9153 26.3429 35.2873 26.3873 38.7452 26.7144C40.7542 26.902 42.7487 26.4607 44.5283 25.4294C51.4477 21.421 58.5731 21.1519 65.1438 24.6627C73.0985 28.913 72.3614 38.1993 70.3416 45.2409C68.4897 51.7034 67.1944 57.4146 66.8927 64.2839C66.5115 73.0519 69.6171 87.5818 75.1689 89.5012C75.5862 89.6444 76.0343 89.6363 76.4408 89.4768C76.6449 89.3979 96.9317 81.683 114.51 90.2226C124.83 95.236 132.239 104.869 136.531 118.854C136.587 119.032 136.669 119.202 136.774 119.357C136.858 119.48 144.883 130.8 162.146 121.825C158.892 137.061 148.922 144.098 131.054 143.978C130.586 144.002 130.136 144.146 129.793 144.461Z" fill="white"/>
</svg>
