<svg width="36" height="28" viewBox="0 0 36 28" fill="none" xmlns="http://www.w3.org/2000/svg">
<path d="M2 14.1229C2 12.9534 2.9481 12.0052 4.11765 12.0052H31.8824C33.0519 12.0052 34 12.9534 34 14.1229C34 15.2924 33.0519 16.2405 31.8824 16.2405H4.11765C2.9481 16.2405 2 15.2924 2 14.1229Z" fill="white"/>
<path fill-rule="evenodd" clip-rule="evenodd" d="M8.81694 1.92385C9.45242 1.56562 10.9957 0.84916 11.5405 1.02827C11.6218 1.05503 11.7437 1.08179 11.8928 1.11452C12.7418 1.30088 14.4727 1.68084 14.6271 3.35677C14.7724 4.93299 14.3245 6.22262 14.0824 6.67041C13.81 7.68539 13.4288 9.98404 14.0824 11.0587C14.3003 11.6677 14.402 12.1191 14.4746 12.4415C14.5835 12.9251 14.6271 13.1186 14.8995 13.1186C15.0114 13.1186 15.1731 13.0641 15.3968 12.9887C16.0798 12.7585 17.3409 12.3334 19.5294 12.6708C22.4345 13.1186 23.07 13.5663 24.5225 14.9993C25.7261 16.1866 26.1194 17.8044 26.2705 18.4259C26.3018 18.5545 26.3227 18.6404 26.3382 18.6711C26.6106 18.9398 27.5184 19.7458 28.3355 19.6563C28.8271 19.6024 29.5817 19.2567 30.1641 18.9898C30.5496 18.8132 30.8597 18.6711 30.9682 18.6711C31.1134 18.9577 30.7261 20.3429 30.5143 20.9996C30.1209 21.8654 28.517 23.6147 25.2488 23.6864C23.7963 24.0446 23.8568 26.0447 24.0686 27C23.07 26.8209 22.0714 25.8357 21.2543 23.6864C21.0747 24.1737 20.7617 24.7268 20.4914 25.2047C20.2152 25.6928 19.9833 26.1025 19.9833 26.2835C19.9833 26.6418 18.9847 24.3133 18.9847 23.6864C16.8059 23.4177 15.1718 22.7908 14.8995 22.6117C14.3548 23.6864 14.0824 26.0149 14.0824 27C13.4469 27 10.9957 24.8506 11.2681 20.2832C10.451 20.9996 8.36302 23.6864 8.36302 23.955C7.99988 23.6864 7.99988 19.5667 9.08929 17.7756C9.36164 17.3278 9.36164 16.7009 9.08929 15.9844C8.73919 15.2246 8.92914 10.9485 9.03435 8.58028C9.06554 7.87801 9.08929 7.34351 9.08929 7.11819C9.04511 7.11275 8.99153 7.10697 8.92984 7.10031C7.9772 6.99757 5.08928 6.6861 5.00402 4.16279C4.91324 2.28208 6.36577 1.65518 8.81694 1.92385Z" fill="white"/>
<path d="M9.49225 2.62024C8.66525 1.79325 7.32443 1.79325 6.49744 2.62024C5.67045 3.44724 5.67045 4.78806 6.49744 5.61505L15.0052 14.1228L6.68634 22.4417C5.85935 23.2687 5.85935 24.6096 6.68634 25.4366C7.51333 26.2635 8.85415 26.2635 9.68114 25.4366L18 17.1177L26.1301 25.2477C26.957 26.0747 28.2979 26.0747 29.1249 25.2477C29.9519 24.4207 29.9519 23.0799 29.1249 22.2529L20.9948 14.1228L29.3138 5.80394C30.1407 4.97695 30.1407 3.63613 29.3138 2.80914C28.4868 1.98214 27.1459 1.98214 26.319 2.80913L18 11.128L9.49225 2.62024Z" fill="white"/>
</svg>
