<svg xmlns="http://www.w3.org/2000/svg" xmlns:xlink="http://www.w3.org/1999/xlink" width="65" height="53" viewBox="0 0 65 53"><defs><path id="a" d="M703.046 698.065h13.656l-23.738 26.007zm-24.449 0h21.31l-10.655 27.46zm-16.796 0h13.634l10.128 26.063zm7.974-14.573l4.537 11.64h-12.969zm38.93-.023l8.456 11.663h-12.97zm-19.453-.688l10.105 12.351h-20.21zm3.093-.847h13.807l-4.442 11.457zm-20.003 0h13.804l-9.356 11.444zm-3.346-2.337l-11.732 16.13c-.393.545-.342 1.365.115 1.857l30.796 33.729c.547.592 1.606.592 2.154 0l30.796-33.73c.457-.491.507-1.31.114-1.855l-11.732-16.131c-.273-.371-.73-.6-1.191-.596h-38.128c-.517-.017-.929.24-1.192.596z"/></defs><use fill="#585858" xlink:href="#a" transform="translate(-657 -679)"/></svg>