<?xml version="1.0" encoding="utf-8"?>
<!-- Generator: Adobe Illustrator 21.1.0, SVG Export Plug-In . SVG Version: 6.00 Build 0)  -->
<svg version="1.1" id="Layer_1" xmlns="http://www.w3.org/2000/svg" xmlns:xlink="http://www.w3.org/1999/xlink" x="0px" y="0px"
	 viewBox="0 0 43.9 44" style="enable-background:new 0 0 43.9 44;" xml:space="preserve">
<style type="text/css">
	.st0{fill:#00BC87;}
</style>
<g>
	<g>
		<path class="st0" d="M43.9,14.4L43.9,14.4C43.2,6.8,37.2,0.8,29.6,0.1c-3.3-0.3-6.5,0.3-9.4,1.9c-1.3,0.7-2.7,0.9-4.1,0.5
			c-1.8-0.5-3.6-0.6-5.4-0.3C6.4,3,3,6.5,2.1,10.8c-0.4,1.8-0.3,3.7,0.3,5.4C2.9,17.5,2.7,19,2,20.3c-1.6,2.8-2.2,6.1-1.9,9.4
			C0.9,37.2,6.9,43.2,14.4,44c0.5,0,1.1,0,1.6,0c2.7,0,5.4-0.7,7.7-2c1.3-0.7,2.7-0.9,4.1-0.5c1.8,0.5,3.6,0.6,5.4,0.3
			c4.3-0.8,7.7-4.3,8.6-8.6c0.4-1.8,0.3-3.7-0.3-5.4c-0.4-1.3-0.2-2.8,0.5-4.1C43.6,20.9,44.2,17.6,43.9,14.4z M40.3,22.8
			c-1,1.8-1.2,3.8-0.6,5.6c0.4,1.4,0.5,2.9,0.2,4.4c-0.7,3.5-3.5,6.3-7,7c-1.5,0.3-3,0.2-4.4-0.2c-1.8-0.6-3.8-0.3-5.6,0.6
			c-2.5,1.4-5.3,2-8.2,1.7C8,41.3,2.7,36,2.1,29.4c-0.3-2.9,0.3-5.7,1.7-8.2c1-1.8,1.2-3.8,0.6-5.6c-0.4-1.4-0.5-2.9-0.2-4.4
			c0.7-3.5,3.5-6.3,7-7C11.8,4.1,12.4,4,13,4c0.9,0,1.8,0.1,2.6,0.4c1.8,0.6,3.8,0.3,5.6-0.6c2.5-1.4,5.3-2,8.2-1.7
			C36,2.7,41.3,8,41.9,14.6l0,0C42.2,17.4,41.6,20.3,40.3,22.8z"/>
		<path class="st0" d="M22,13c-5,0-9,4-9,9s4,9,9,9s9-4,9-9S27,13,22,13z M22,29c-3.9,0-7-3.1-7-7s3.1-7,7-7s7,3.1,7,7
			S25.9,29,22,29z"/>
		<path class="st0" d="M22,17c-2.8,0-5,2.2-5,5c0,0.6,0.4,1,1,1s1-0.4,1-1c0-1.7,1.3-3,3-3c0.6,0,1-0.4,1-1S22.6,17,22,17z"/>
	</g>
</g>
</svg>
