<svg width="46" height="40" viewBox="0 0 46 40" fill="none" xmlns="http://www.w3.org/2000/svg">
<mask id="path-1-outside-1_999_81" maskUnits="userSpaceOnUse" x="0" y="0" width="46" height="40" fill="black">
<rect fill="white" width="46" height="40"/>
<path fill-rule="evenodd" clip-rule="evenodd" d="M23.4499 21.9648C23.392 23.7827 23.2557 25.4788 23.041 27.053C22.747 29.209 22.1753 31.071 21.326 32.639C20.4767 34.207 19.1863 35.4156 17.455 36.265C15.7563 37.1143 13.486 37.539 10.644 37.539C9.076 37.539 7.67133 37.3593 6.43 37C5.18867 36.6406 4.04533 36.1016 3 35.383L4.519 29.895C4.94367 30.189 5.695 30.5483 6.773 30.973C7.851 31.365 9.125 31.561 10.595 31.561C11.869 31.561 12.9143 31.3486 13.731 30.924C14.5477 30.4666 15.1683 29.797 15.593 28.915C16.0503 28.033 16.3443 26.8896 16.475 25.485C16.6383 24.0803 16.72 22.398 16.72 20.438V2.20996H23.482V13.3854L33.52 2H40.968L27.64 17.435L41.801 36.79H34.157L23.4499 21.9648Z"/>
</mask>
<path fill-rule="evenodd" clip-rule="evenodd" d="M23.4499 21.9648C23.392 23.7827 23.2557 25.4788 23.041 27.053C22.747 29.209 22.1753 31.071 21.326 32.639C20.4767 34.207 19.1863 35.4156 17.455 36.265C15.7563 37.1143 13.486 37.539 10.644 37.539C9.076 37.539 7.67133 37.3593 6.43 37C5.18867 36.6406 4.04533 36.1016 3 35.383L4.519 29.895C4.94367 30.189 5.695 30.5483 6.773 30.973C7.851 31.365 9.125 31.561 10.595 31.561C11.869 31.561 12.9143 31.3486 13.731 30.924C14.5477 30.4666 15.1683 29.797 15.593 28.915C16.0503 28.033 16.3443 26.8896 16.475 25.485C16.6383 24.0803 16.72 22.398 16.72 20.438V2.20996H23.482V13.3854L33.52 2H40.968L27.64 17.435L41.801 36.79H34.157L23.4499 21.9648Z" fill="#DD2E2E"/>
<path d="M23.4499 21.9648L25.0712 20.7938L21.6377 16.0396L21.4509 21.9011L23.4499 21.9648ZM23.041 27.053L21.0593 26.7827L21.0593 26.7827L23.041 27.053ZM17.455 36.265L16.5741 34.4694L16.5673 34.4727L16.5606 34.4761L17.455 36.265ZM6.43 37L6.98612 35.0788L6.98612 35.0788L6.43 37ZM3 35.383L1.07247 34.8494L0.692182 36.2234L1.86694 37.031L3 35.383ZM4.519 29.895L5.65742 28.2506L3.34253 26.648L2.59147 29.3614L4.519 29.895ZM6.773 30.973L6.03995 32.8338L6.06461 32.8435L6.08951 32.8525L6.773 30.973ZM13.731 30.924L14.6537 32.6984L14.6812 32.6841L14.7082 32.669L13.731 30.924ZM15.593 28.915L13.8175 27.9943L13.8039 28.0206L13.791 28.0473L15.593 28.915ZM16.475 25.485L14.4884 25.254L14.4857 25.2768L14.4836 25.2997L16.475 25.485ZM16.72 2.20996V0.209961H14.72V2.20996H16.72ZM23.482 2.20996H25.482V0.209961H23.482V2.20996ZM23.482 13.3854H21.482V18.678L24.9822 14.708L23.482 13.3854ZM33.52 2V0H32.617L32.0198 0.677344L33.52 2ZM40.968 2L42.4817 3.30711L45.3374 0H40.968V2ZM27.64 17.435L26.1262 16.1279L25.0865 17.332L26.0259 18.616L27.64 17.435ZM41.801 36.79V38.79H45.7424L43.4151 35.609L41.801 36.79ZM34.157 36.79L32.5356 37.961L33.1344 38.79H34.157V36.79ZM21.4509 21.9011C21.3949 23.6596 21.2634 25.286 21.0593 26.7827L25.0227 27.3232C25.2479 25.6716 25.389 23.9059 25.4489 22.0285L21.4509 21.9011ZM21.0593 26.7827C20.791 28.7507 20.2796 30.3715 19.5674 31.6864L23.0846 33.5915C24.071 31.7704 24.703 29.6672 25.0227 27.3232L21.0593 26.7827ZM19.5674 31.6864C18.9323 32.8589 17.9644 33.7873 16.5741 34.4694L18.3359 38.0605C20.4082 37.0439 22.021 35.555 23.0846 33.5915L19.5674 31.6864ZM16.5606 34.4761C15.2431 35.1348 13.3168 35.539 10.644 35.539V39.539C13.6552 39.539 16.2695 39.0938 18.3494 38.0538L16.5606 34.4761ZM10.644 35.539C9.22557 35.539 8.01305 35.3761 6.98612 35.0788L5.87388 38.9211C7.32961 39.3425 8.92643 39.539 10.644 39.539V35.539ZM6.98612 35.0788C5.94657 34.7779 4.99861 34.3299 4.13306 33.7349L1.86694 37.031C3.09205 37.8733 4.43077 38.5033 5.87388 38.9211L6.98612 35.0788ZM4.92753 35.9165L6.44653 30.4285L2.59147 29.3614L1.07247 34.8494L4.92753 35.9165ZM3.38058 31.5393C4.01063 31.9755 4.95077 32.4047 6.03995 32.8338L7.50605 29.1121C6.43923 28.6919 5.8767 28.4024 5.65742 28.2506L3.38058 31.5393ZM6.08951 32.8525C7.43848 33.3431 8.95438 33.561 10.595 33.561V29.561C9.29562 29.561 8.26352 29.3868 7.45649 29.0934L6.08951 32.8525ZM10.595 33.561C12.0735 33.561 13.4639 33.3171 14.6537 32.6984L12.8083 29.1495C12.3647 29.3802 11.6645 29.561 10.595 29.561V33.561ZM14.7082 32.669C15.9005 32.0013 16.8007 31.0168 17.395 29.7826L13.791 28.0473C13.5359 28.5771 13.1949 28.932 12.7538 29.1789L14.7082 32.669ZM17.3685 29.8356C17.9832 28.6501 18.3211 27.2321 18.4664 25.6702L14.4836 25.2997C14.3676 26.5472 14.1175 27.4158 13.8175 27.9943L17.3685 29.8356ZM18.4616 25.716C18.6365 24.2118 18.72 22.4481 18.72 20.438H14.72C14.72 22.3478 14.6401 23.9488 14.4884 25.254L18.4616 25.716ZM18.72 20.438V2.20996H14.72V20.438H18.72ZM16.72 4.20996H23.482V0.209961H16.72V4.20996ZM21.482 2.20996V13.3854H25.482V2.20996H21.482ZM24.9822 14.708L35.0202 3.32266L32.0198 0.677344L21.9818 12.0627L24.9822 14.708ZM33.52 4H40.968V0H33.52V4ZM39.4542 0.692885L26.1262 16.1279L29.1537 18.7421L42.4817 3.30711L39.4542 0.692885ZM26.0259 18.616L40.1869 37.971L43.4151 35.609L29.2541 16.254L26.0259 18.616ZM41.801 34.79H34.157V38.79H41.801V34.79ZM35.7783 35.619L25.0712 20.7938L21.8285 23.1358L32.5356 37.961L35.7783 35.619Z" fill="white" mask="url(#path-1-outside-1_999_81)"/>
</svg>
