<svg width="36" height="28" viewBox="0 0 36 28" fill="none" xmlns="http://www.w3.org/2000/svg">
  <rect x="2" y="12.0052" width="32" height="4.23529" rx="2.11765" fill="white"/>
  <path d="M9.49225 2.62024C8.66525 1.79325 7.32443 1.79325 6.49744 2.62024C5.67045 3.44724 5.67045 4.78806 6.49744 5.61505L15.0052 14.1228L6.68634 22.4417C5.85935 23.2687 5.85935 24.6096 6.68634 25.4366C7.51333 26.2635 8.85415 26.2635 9.68114 25.4366L18 17.1177L26.1301 25.2477C26.957 26.0747 28.2979 26.0747 29.1249 25.2477C29.9519 24.4207 29.9519 23.0799 29.1249 22.2529L20.9948 14.1228L29.3138 5.80394C30.1407 4.97695 30.1407 3.63613 29.3138 2.80914C28.4868 1.98214 27.1459 1.98214 26.319 2.80913L18 11.128L9.49225 2.62024Z" fill="white"/>
</svg>
